<?xml version="1.0" encoding="UTF-8" standalone="no"?>
<!-- Created with Inkscape (http://www.inkscape.org/) -->

<svg
   xmlns:dc="http://purl.org/dc/elements/1.1/"
   xmlns:cc="http://creativecommons.org/ns#"
   xmlns:rdf="http://www.w3.org/1999/02/22-rdf-syntax-ns#"
   xmlns:svg="http://www.w3.org/2000/svg"
   xmlns="http://www.w3.org/2000/svg"
   xmlns:sodipodi="http://sodipodi.sourceforge.net/DTD/sodipodi-0.dtd"
   xmlns:inkscape="http://www.inkscape.org/namespaces/inkscape"
   width="64"
   height="64"
   viewBox="0 0 16.933333 16.933333"
   version="1.1"
   id="svg8"
   inkscape:version="0.92.5 (2060ec1f9f, 2020-04-08)"
   sodipodi:docname="tileleft.svg"
   inkscape:export-filename="/home/mathis/.config/awesome/assets/tileleft/tileleft.png"
   inkscape:export-xdpi="96"
   inkscape:export-ydpi="96">
  <defs
     id="defs2" />
  <sodipodi:namedview
     id="base"
     pagecolor="#929292"
     bordercolor="#666666"
     borderopacity="1.0"
     inkscape:pageopacity="0"
     inkscape:pageshadow="2"
     inkscape:zoom="7.919596"
     inkscape:cx="16.954779"
     inkscape:cy="23.045961"
     inkscape:document-units="px"
     inkscape:current-layer="layer2"
     showgrid="false"
     inkscape:pagecheckerboard="false"
     inkscape:window-width="1908"
     inkscape:window-height="1016"
     inkscape:window-x="6"
     inkscape:window-y="32"
     inkscape:window-maximized="0"
     units="px"
     inkscape:object-paths="false"
     inkscape:snap-smooth-nodes="true"
     inkscape:snap-midpoints="true"
     showguides="true"
     inkscape:guide-bbox="true" />
  <metadata
     id="metadata5">
    <rdf:RDF>
      <cc:Work
         rdf:about="">
        <dc:format>image/svg+xml</dc:format>
        <dc:type
           rdf:resource="http://purl.org/dc/dcmitype/StillImage" />
        <dc:title />
      </cc:Work>
    </rdf:RDF>
  </metadata>
  <g
     inkscape:label="Backup"
     inkscape:groupmode="layer"
     id="layer1"
     transform="translate(0,-280.06667)"
     style="display:none;opacity:0.51000001"
     sodipodi:insensitive="true">
    <path
       style="fill:none;stroke:#f3f3f3;stroke-width:1.05833328;stroke-linecap:butt;stroke-linejoin:round;stroke-miterlimit:4;stroke-dasharray:none;stroke-opacity:1"
       d="m 2.1166667,293.29584 c 0,-0.93136 0,-9.525 0,-9.525 0,-0.86639 0.6679482,-1.5875 1.5874999,-1.5875 h 9.5249994 c 1.040401,0 1.587501,0.6852 1.587501,1.5875 0,0 0,8.65096 0,9.525 0,0.87404 -0.685225,1.5875 -1.587501,1.5875 -0.902276,0 -8.5442966,0 -9.5249994,0 -0.9807028,0 -1.5874999,-0.65614 -1.5874999,-1.5875 z"
       id="path3714"
       inkscape:connector-curvature="0"
       sodipodi:nodetypes="zzzzzzzzz" />
  </g>
  <g
     inkscape:groupmode="layer"
     id="layer2"
     inkscape:label="Main">
    <g
       id="g1006"
       inkscape:export-xdpi="118.1497"
       inkscape:export-ydpi="118.1497"
       transform="matrix(1.0922703,0,0,1.0922703,-0.78124052,-0.78124441)">
      <path
         sodipodi:nodetypes="zzzzzzzzz"
         inkscape:connector-curvature="0"
         id="path3714-7"
         d="M 2.1166667,13.229169 V 3.70417 c 0,-0.86639 0.6679482,-1.5875 1.5874999,-1.5875 h 4.7624997 c 1.0404014,0 1.0583342,0.067139 1.0583342,0.969439 v 10.761122 c 0,0.874041 -0.1560582,0.969438 -1.0583342,0.969438 H 3.7041666 c -0.9807028,0 -1.5874999,-0.65614 -1.5874999,-1.5875 z"
         style="display:inline;fill:none;stroke:#f3f3f3;stroke-width:1.05833328;stroke-linecap:butt;stroke-linejoin:round;stroke-miterlimit:4;stroke-dasharray:none;stroke-opacity:1" />
      <path
         sodipodi:nodetypes="zzzzzzzzz"
         inkscape:connector-curvature="0"
         id="path3714-7-5-6"
         d="m 11.081893,13.847231 v -3.733779 c 0,-0.8663901 -0.0053,-0.8551712 0.91423,-0.8551712 h 1.800007 c 1.040401,0 1.020537,-0.047129 1.020537,0.8551712 v 3.115718 c 0,0.874041 -0.685225,1.5875 -1.587501,1.5875 h -1.233043 c -0.980702,0 -0.91423,-0.03808 -0.91423,-0.969439 z"
         style="display:inline;fill:none;stroke:#f3f3f3;stroke-width:1.05833328;stroke-linecap:butt;stroke-linejoin:round;stroke-miterlimit:4;stroke-dasharray:none;stroke-opacity:1" />
      <path
         sodipodi:nodetypes="zzzzzzzzz"
         inkscape:connector-curvature="0"
         id="path3714-7-5-6-1"
         d="M 11.081893,3.0861093 V 6.819881 c 0,0.86639 -0.0053,0.855171 0.91423,0.855171 h 1.800007 c 1.040401,0 1.020537,0.04713 1.020537,-0.855171 V 3.70417 c 0,-0.8740407 -0.685225,-1.5874997 -1.587501,-1.5874997 h -1.233043 c -0.980702,0 -0.91423,0.03808 -0.91423,0.969439 z"
         style="display:inline;fill:none;stroke:#f3f3f3;stroke-width:1.05833328;stroke-linecap:butt;stroke-linejoin:round;stroke-miterlimit:4;stroke-dasharray:none;stroke-opacity:1" />
    </g>
  </g>
</svg>
